<svg width="70" height="70" viewBox="0 0 70 70" fill="none" xmlns="http://www.w3.org/2000/svg">
<path d="M50.0653 15.2796L49.0046 16.3402L50.0653 15.2796ZM54.7195 19.9339L55.7802 18.8732V18.8732L54.7195 19.9339ZM41.8814 34.0821L40.8208 35.1427L41.8814 34.0821ZM35.918 28.1187L36.9787 27.058L35.918 28.1187ZM54.7195 26.8463L53.6589 25.7857L54.7195 26.8463ZM61.0672 51.3403L59.7648 52.0845C60.0813 52.6383 60.7134 52.9314 61.3405 52.8151C61.9677 52.6989 62.4528 52.1988 62.5498 51.5684L61.0672 51.3403ZM47.461 34.1048L46.4003 33.0442L47.461 34.1048ZM18.6599 8.93312L18.4317 7.45059C17.8013 7.54764 17.3013 8.03267 17.1851 8.65978C17.0688 9.28688 17.3619 9.9189 17.9156 10.2354L18.6599 8.93312ZM35.8947 22.54L36.9553 23.6006L35.8947 22.54ZM34.5046 26.4764L33.1469 27.114L33.1469 27.114L34.5046 26.4764ZM34.5046 24.159L33.1469 23.5214V23.5214L34.5046 24.159ZM43.5246 35.4959L42.8874 36.8539H42.8874L43.5246 35.4959ZM45.8406 35.4959L45.2034 34.138L45.2034 34.138L45.8406 35.4959ZM57.0107 22.9489L58.4909 22.7062V22.7062L57.0107 22.9489ZM57.0107 23.8313L58.4909 24.074L58.4909 24.074L57.0107 23.8313ZM47.0526 12.9898L47.2961 11.5097L47.2961 11.5097L47.0526 12.9898ZM46.1677 12.9898L46.4112 14.4699L46.4112 14.4699L46.1677 12.9898ZM15.8574 60.1061L16.8844 61.1993C16.8958 61.1886 16.907 61.1778 16.918 61.1667L15.8574 60.1061ZM9.89395 54.1426L8.83329 53.082C8.82225 53.093 8.81137 53.1042 8.80068 53.1156L9.89395 54.1426ZM9.98567 60.0143L11.0463 58.9537L9.98567 60.0143ZM37.5841 40.5007C38.1699 39.915 38.1699 38.9652 37.5841 38.3794C36.9983 37.7936 36.0485 37.7936 35.4628 38.3794L36.5234 39.4401L37.5841 40.5007ZM31.6207 34.5373C32.2064 33.9515 32.2064 33.0018 31.6207 32.416C31.0349 31.8302 30.0851 31.8302 29.4993 32.416L30.56 33.4767L31.6207 34.5373ZM50.0653 15.2796L49.0046 16.3402L53.6589 20.9945L54.7195 19.9339L55.7802 18.8732L51.1259 14.2189L50.0653 15.2796ZM41.8814 34.0821L42.9421 33.0214L36.9787 27.058L35.918 28.1187L34.8573 29.1793L40.8208 35.1427L41.8814 34.0821ZM54.7195 26.8463L53.4709 27.6775C57.422 33.613 58.9476 39.5004 59.4858 43.9043C59.7549 46.1058 59.7763 47.9309 59.7318 49.1962C59.7096 49.8285 59.6709 50.3199 59.6387 50.6472C59.6226 50.8108 59.6081 50.9333 59.5981 51.0118C59.5932 51.051 59.5893 51.0793 59.5869 51.0961C59.5857 51.1045 59.5849 51.1101 59.5845 51.1128C59.5843 51.1141 59.5842 51.1148 59.5843 51.1147C59.5843 51.1146 59.5843 51.1144 59.5844 51.114C59.5844 51.1137 59.5845 51.1133 59.5845 51.1132C59.5846 51.1127 59.5846 51.1121 61.0672 51.3403C62.5498 51.5684 62.5499 51.5677 62.55 51.567C62.55 51.5667 62.5501 51.566 62.5502 51.5654C62.5504 51.5643 62.5506 51.5629 62.5508 51.5614C62.5513 51.5583 62.5518 51.5545 62.5525 51.55C62.5538 51.5409 62.5556 51.5289 62.5577 51.5139C62.5619 51.4841 62.5675 51.4426 62.5742 51.3898C62.5876 51.2843 62.6053 51.1337 62.6243 50.941C62.6622 50.5556 62.7054 50.0013 62.73 49.3017C62.7792 47.9032 62.7544 45.9193 62.4637 43.5404C61.8823 38.7833 60.2342 32.4237 55.9682 26.0151L54.7195 26.8463ZM54.7195 26.8463L53.6589 25.7857L46.4003 33.0442L47.461 34.1048L48.5217 35.1655L55.7802 27.907L54.7195 26.8463ZM47.461 34.1048L46.3587 35.1221C51.2531 40.426 54.6182 44.6903 56.7527 47.6165C57.82 49.0797 58.5798 50.2084 59.0693 50.9655C59.3141 51.344 59.4913 51.6296 59.6057 51.8177C59.6629 51.9117 59.7043 51.9813 59.7307 52.026C59.7438 52.0483 59.7532 52.0644 59.7589 52.0742C59.7617 52.0791 59.7636 52.0824 59.7646 52.0841C59.7651 52.0849 59.7654 52.0854 59.7654 52.0855C59.7654 52.0855 59.7654 52.0854 59.7653 52.0853C59.7652 52.0852 59.7651 52.085 59.7651 52.0849C59.765 52.0847 59.7648 52.0845 61.0672 51.3403C62.3696 50.5961 62.3694 50.5957 62.3692 50.5954C62.3691 50.5953 62.3689 50.5949 62.3688 50.5946C62.3684 50.5941 62.3681 50.5934 62.3676 50.5927C62.3667 50.5911 62.3656 50.5892 62.3643 50.5869C62.3616 50.5822 62.358 50.576 62.3535 50.5681C62.3444 50.5525 62.3316 50.5305 62.3149 50.5023C62.2817 50.446 62.2332 50.3646 62.1689 50.2588C62.0403 50.0473 61.8484 49.7383 61.5885 49.3364C61.0687 48.5327 60.2772 47.3576 59.1764 45.8485C56.9748 42.8304 53.5367 38.477 48.5634 33.0876L47.461 34.1048ZM18.6599 8.93312C17.9156 10.2354 17.9153 10.2353 17.9151 10.2351C17.9151 10.2351 17.9149 10.235 17.9148 10.2349C17.9146 10.2348 17.9145 10.2348 17.9146 10.2348C17.9146 10.2349 17.9151 10.2351 17.9159 10.2356C17.9177 10.2366 17.921 10.2385 17.9259 10.2413C17.9356 10.247 17.9517 10.2564 17.974 10.2696C18.0187 10.2959 18.0883 10.3374 18.1823 10.3946C18.3704 10.509 18.656 10.6862 19.0345 10.931C19.7915 11.4207 20.9202 12.1805 22.3833 13.2479C25.3094 15.3826 29.5736 18.7479 34.8774 23.6423L35.8947 22.54L36.9119 21.4376C31.5226 16.4643 27.1694 13.0261 24.1514 10.8243C22.6425 9.72349 21.4675 8.93184 20.6638 8.41202C20.2619 8.15212 19.9529 7.96018 19.7415 7.83154C19.6357 7.76722 19.5544 7.71872 19.498 7.68547C19.4698 7.66884 19.4478 7.65602 19.4322 7.64694C19.4244 7.6424 19.4181 7.6388 19.4135 7.63612C19.4112 7.63478 19.4092 7.63367 19.4077 7.63279C19.4069 7.63235 19.4063 7.63197 19.4057 7.63165C19.4054 7.63148 19.4051 7.63128 19.4049 7.6312C19.4046 7.63102 19.4043 7.63084 18.6599 8.93312ZM35.8947 22.54L36.9553 23.6006L44.2157 16.3402L43.1551 15.2796L42.0944 14.2189L34.834 21.4793L35.8947 22.54ZM18.6599 8.93312C18.8882 10.4157 18.8876 10.4157 18.8871 10.4158C18.887 10.4158 18.8866 10.4159 18.8864 10.4159C18.886 10.416 18.8857 10.416 18.8857 10.416C18.8856 10.4161 18.8862 10.416 18.8875 10.4158C18.8902 10.4154 18.8958 10.4146 18.9042 10.4134C18.9211 10.411 18.9493 10.4071 18.9886 10.4021C19.0671 10.3922 19.1896 10.3777 19.3532 10.3616C19.6805 10.3293 20.1719 10.2906 20.8043 10.2683C22.0697 10.2236 23.8949 10.2449 26.0966 10.5138C30.5008 11.0517 36.3884 12.5771 42.3239 16.5282L43.1551 15.2796L43.9863 14.0309C37.5776 9.76485 31.2176 8.117 26.4603 7.53596C24.0812 7.24539 22.0972 7.2208 20.6985 7.27014C19.9988 7.29482 19.4445 7.33805 19.0591 7.37601C18.8664 7.395 18.7158 7.41268 18.6103 7.42609C18.5575 7.4328 18.516 7.43844 18.4861 7.44264C18.4712 7.44475 18.4591 7.44649 18.45 7.44783C18.4455 7.4485 18.4417 7.44907 18.4386 7.44953C18.4371 7.44976 18.4358 7.44996 18.4346 7.45014C18.434 7.45023 18.4333 7.45034 18.433 7.45039C18.4323 7.45049 18.4317 7.45059 18.6599 8.93312ZM35.918 28.1187L36.9787 27.058C36.5706 26.65 36.3046 26.3831 36.1116 26.166C35.9225 25.9533 35.8749 25.8654 35.8624 25.8388L34.5046 26.4764L33.1469 27.114C33.3371 27.519 33.6004 27.8566 33.8694 28.1592C34.1345 28.4574 34.4738 28.7958 34.8573 29.1793L35.918 28.1187ZM35.8947 22.54L34.834 21.4793C34.134 22.1794 33.4892 22.7923 33.1469 23.5214L34.5046 24.159L35.8624 24.7966C35.9254 24.6623 36.0723 24.4837 36.9553 23.6006L35.8947 22.54ZM34.5046 26.4764L35.8624 25.8388C35.7074 25.5087 35.7074 25.1267 35.8624 24.7966L34.5046 24.159L33.1469 23.5214C32.6125 24.6593 32.6125 25.976 33.1469 27.114L34.5046 26.4764ZM41.8814 34.0821L40.8208 35.1427C41.2046 35.5266 41.5432 35.866 41.8415 36.1312C42.1444 36.4004 42.482 36.6637 42.8874 36.8539L43.5246 35.4959L44.1618 34.138C44.135 34.1255 44.0472 34.0779 43.8346 33.8889C43.6174 33.6959 43.3504 33.4298 42.9421 33.0214L41.8814 34.0821ZM47.461 34.1048L46.4003 33.0442C45.5165 33.928 45.3378 34.0749 45.2034 34.138L45.8406 35.4959L46.4777 36.8539C47.2075 36.5114 47.821 35.8662 48.5217 35.1655L47.461 34.1048ZM43.5246 35.4959L42.8874 36.8539C44.0247 37.3875 45.3404 37.3875 46.4777 36.8539L45.8406 35.4959L45.2034 34.138C44.8734 34.2928 44.4917 34.2928 44.1618 34.138L43.5246 35.4959ZM54.7195 19.9339L53.6589 20.9945C54.3987 21.7343 54.8676 22.2061 55.1813 22.5952C55.4774 22.9627 55.5186 23.1194 55.5305 23.1917L57.0107 22.9489L58.4909 22.7062C58.3607 21.9125 57.9727 21.278 57.517 20.7126C57.0788 20.1689 56.4732 19.5662 55.7802 18.8732L54.7195 19.9339ZM54.7195 26.8463L55.7802 27.907C56.4732 27.214 57.0788 26.6113 57.517 26.0676C57.9727 25.5022 58.3607 24.8677 58.4909 24.074L57.0107 23.8313L55.5305 23.5885C55.5186 23.6608 55.4774 23.8175 55.1813 24.1849C54.8676 24.5741 54.3987 25.0459 53.6589 25.7857L54.7195 26.8463ZM57.0107 22.9489L55.5305 23.1917C55.552 23.3231 55.552 23.4571 55.5305 23.5885L57.0107 23.8313L58.4909 24.074C58.5652 23.6211 58.5652 23.1591 58.4909 22.7062L57.0107 22.9489ZM50.0653 15.2796L51.1259 14.2189C50.4335 13.5265 49.8312 12.9214 49.2879 12.4834C48.723 12.028 48.0891 11.6402 47.2961 11.5097L47.0526 12.9898L46.8092 14.4699C46.8813 14.4818 47.0379 14.523 47.4051 14.819C47.7939 15.1324 48.2654 15.601 49.0046 16.3402L50.0653 15.2796ZM43.1551 15.2796L44.2157 16.3402C44.955 15.601 45.4264 15.1324 45.8152 14.819C46.1824 14.523 46.339 14.4818 46.4112 14.4699L46.1677 12.9898L45.9242 11.5097C45.1312 11.6402 44.4973 12.028 43.9324 12.4834C43.3891 12.9214 42.7869 13.5265 42.0944 14.2189L43.1551 15.2796ZM47.0526 12.9898L47.2961 11.5097C46.8419 11.435 46.3785 11.435 45.9242 11.5097L46.1677 12.9898L46.4112 14.4699C46.543 14.4483 46.6774 14.4483 46.8092 14.4699L47.0526 12.9898ZM9.98567 60.0143L8.92501 61.075C11.1092 63.2592 14.6331 63.3142 16.8844 61.1993L15.8574 60.1061L14.8304 59.0128C13.76 60.0182 12.0847 59.9921 11.0463 58.9537L9.98567 60.0143ZM9.98567 60.0143L11.0463 58.9537C10.0079 57.9153 9.98177 56.24 10.9872 55.1697L9.89395 54.1426L8.80068 53.1156C6.6858 55.3669 6.74084 58.8908 8.92501 61.075L9.98567 60.0143ZM15.8574 60.1061L16.918 61.1667L37.5841 40.5007L36.5234 39.4401L35.4628 38.3794L14.7967 59.0454L15.8574 60.1061ZM30.56 33.4767L29.4993 32.416L8.83329 53.082L9.89395 54.1426L10.9546 55.2033L31.6207 34.5373L30.56 33.4767Z" fill="#141B34"/>
<rect x="47.3516" y="12.5986" width="14.5862" height="17.9862" transform="rotate(44.9232 47.3516 12.5986)" fill="#141B34"/>
</svg>
