<svg width="70" height="70" viewBox="0 0 70 70" fill="none" xmlns="http://www.w3.org/2000/svg">
<path d="M24.4865 7.44288C28.7883 4.77749 32.5429 5.85161 34.7984 7.56256C35.7232 8.26409 36.1856 8.61485 36.4577 8.61485C36.7297 8.61485 37.1921 8.26409 38.117 7.56256C40.3725 5.85161 44.1271 4.77749 48.4289 7.44288C54.0745 10.9409 55.352 22.481 42.3297 32.217C39.8493 34.0714 38.6092 34.9986 36.4577 34.9986C34.3062 34.9986 33.066 34.0714 30.5857 32.217C17.5634 22.481 18.8408 10.9409 24.4865 7.44288Z" fill="black" stroke="#141B34" stroke-width="3" stroke-linecap="round"/>
<path d="M11.666 40.833H18.6509C19.5088 40.833 20.355 41.0263 21.1223 41.3976L27.0781 44.2792C27.8455 44.6505 28.6916 44.8438 29.5496 44.8438H32.5906C35.5317 44.8438 37.916 47.151 37.916 49.9972C37.916 50.1122 37.8372 50.2133 37.7229 50.2449L30.3119 52.2939C28.9825 52.6615 27.5589 52.5334 26.3223 51.9351L19.9555 48.8546" stroke="#141B34" stroke-width="3" stroke-linecap="round" stroke-linejoin="round"/>
<path d="M37.916 48.125L51.3116 44.0093C53.6863 43.2694 56.2533 44.1468 57.7409 46.2067C58.8164 47.6961 58.3785 49.8289 56.8115 50.733L34.8911 63.3807C33.4969 64.1851 31.8521 64.3814 30.3186 63.9263L11.666 58.3915" stroke="#141B34" stroke-width="3" stroke-linecap="round" stroke-linejoin="round"/>
</svg>
