<svg width="61" height="61" viewBox="0 0 61 61" fill="none" xmlns="http://www.w3.org/2000/svg">
<path d="M60.2952 30.1586C60.2952 45.39 49.0081 57.9822 34.3452 60.0256C32.9741 60.2158 31.5714 60.3151 30.1476 60.3151C28.5041 60.3151 26.8901 60.1841 25.3184 59.9305C10.9639 57.6187 0 45.1682 0 30.1586C0 13.5029 13.4989 0 30.1497 0C46.8005 0 60.2994 13.5029 60.2994 30.1586H60.2952Z" fill="black"/>
<path d="M12.2272 13.3018L26.1318 31.8973L12.1406 47.0168H15.2904L27.5408 33.7801L37.4379 47.0168H48.1547L33.4685 27.3752L46.4921 13.3018H43.3424L32.0616 25.4924L22.9461 13.3018H12.2293H12.2272ZM16.8578 15.622H21.78L43.5198 44.6965H38.5977L16.8578 15.622Z" fill="white"/>
</svg>
